:SAMPLES-PER-SECOND 24
:FULLY-SPECIFIED
:DEGREES
123
root  6.20937 41.2677 30.2569 11.0719 51.1786 3.97351
RightUpLeg  -22.6213 -6.76816 -8.34581
RightLeg  30.5549 2.64304 1.44946
RightFoot  4.95863 -1.39844 9.97964
RightToes  -2.08645e-008 3.77894e-005 6.81332e-007
Spine  5.46274 -5.53699 -9.37375
Spine1  -0.062918 -6.48333 3.70479
HEad  -29.9148 -21.9996 5.92763
LeftShoulder1  7.27924 -13.6045 -36.4878
LeftArm  18.4592 33.4601 -10.2071
LeftForeArm  163.503 -65.7742 -157.518
LeftHand  -0.0342966 -3.9059 0.694419
RightShoulder  4.24017 6.8554 35.0311
RightArm  12.699 -33.1294 32.1983
RightForeArm  152.745 73.3454 145.102
RightHand  0.537819 10.5058 3.49442
LeftUpLeg  -8.12453 7.39717 12.7194
LeftLeg  5.33775 5.69811 0.530987
LeftFoot  11.2305 3.8915 -19.6799
LeftToes  1.24767e-006 1.47042e-008 1.32732e-009
124
root  5.60724 40.9257 30.2601 9.0769 53.9387 3.20587
RightUpLeg  -18.6 -6.97531 -5.83571
RightLeg  28.3742 -0.067909 -0.256317
RightFoot  0.278667 -0.717535 6.91585
RightToes  -2.08645e-008 3.77894e-005 6.81332e-007
Spine  5.20584 -4.63576 -8.53954
Spine1  1.58731 -5.6206 4.0045
HEad  -29.2277 -24.1965 5.72252
LeftShoulder1  7.05234 -13.426 -35.6175
LeftArm  14.7975 36.0389 -14.038
LeftForeArm  166.561 -64.7868 -158.787
LeftHand  -0.130666 -3.4668 1.96096
RightShoulder  4.03787 6.66526 33.8201
RightArm  14.1888 -28.5842 30.3897
RightForeArm  144.488 74.8655 139.951
RightHand  0.148657 8.84153 0.833356
LeftUpLeg  -6.1777 6.20634 14.6044
LeftLeg  13.4073 11.3925 3.8373
LeftFoot  9.22932 2.92934 -16.3741
LeftToes  1.24767e-006 1.47042e-008 1.32732e-009
125
root  4.99814 39.9594 30.2768 8.52319 57.0546 3.43365
RightUpLeg  -16.4792 -6.81962 -4.68001
RightLeg  27.6047 -4.13691 -2.5867
RightFoot  -7.90864 -0.149687 3.26574
RightToes  -2.08645e-008 3.77894e-005 6.81332e-007
Spine  5.34199 -4.19055 -9.51981
Spine1  1.64987 -5.45931 6.05118
HEad  -28.0601 -26.0548 6.05785
LeftShoulder1  6.91536 -13.2347 -35.2884
LeftArm  10.154 38.1113 -18.7975
LeftForeArm  168.103 -63.8687 -159.755
LeftHand  -0.123016 -3.62213 1.83889
RightShoulder  3.91865 6.53347 33.1585
RightArm  14.185 -24.764 28.5099
RightForeArm  134.987 77.2011 130.06
RightHand  0.0719803 9.13986 0.171804
LeftUpLeg  -6.12928 0.656778 15.9949
LeftLeg  25.4423 8.52361 4.53026
LeftFoot  8.90648 2.24243 -12.7886
LeftToes  1.24767e-006 1.47042e-008 1.32732e-009
126
root  4.47633 38.7485 30.0531 7.47241 59.4456 1.57623
RightUpLeg  -19.009 -7.20699 -3.11885
RightLeg  31.7059 -5.49372 -3.89479
RightFoot  -14.7913 -0.0280029 2.33306
RightToes  -2.08645e-008 3.77894e-005 6.81332e-007
Spine  4.46013 -3.91024 -6.75385
Spine1  2.28776 -4.77448 5.1164
HEad  -30.1408 -27.6228 7.77244
LeftShoulder1  7.3748 -13.4415 -37.4331
LeftArm  4.86615 36.3643 -21.606
LeftForeArm  167.754 -63.9456 -159.658
LeftHand  -0.175564 -3.24788 2.60555
RightShoulder  3.9842 6.54533 33.7611
RightArm  11.5718 -21.433 26.8968
RightForeArm  126.673 78.8712 119.198
RightHand  0.0549297 9.4689 0.0298347
LeftUpLeg  -6.90023 -2.22808 17.3076
LeftLeg  35.5627 4.21633 3.59441
LeftFoot  6.70322 2.37902 -15.0803
LeftToes  1.24767e-006 1.47042e-008 1.32732e-009
127
root  4.03554 37.9289 29.6063 3.62439 59.2304 -3.03015
RightUpLeg  -22.5865 -6.64654 -0.477576
RightLeg  36.5821 -6.06864 -5.07648
RightFoot  -16.6585 -0.0477038 1.40089
RightToes  -2.08645e-008 3.77894e-005 6.81332e-007
Spine  3.81658 -3.22529 -0.416757
Spine1  3.66926 -3.13906 0.257527
HEad  -34.0938 -27.6093 10.3469
LeftShoulder1  8.14532 -13.9432 -40.4551
LeftArm  -1.42395 32.3892 -24.8868
LeftForeArm  169.526 -65.5286 -158.42
LeftHand  -0.321203 -2.74784 4.80674
RightShoulder  4.06471 6.63305 34.2089
RightArm  8.67391 -18.2801 26.3957
RightForeArm  124.098 79.0716 117.022
RightHand  -0.083988 8.6584 -1.07991
LeftUpLeg  -3.39932 -2.90428 18.3693
LeftLeg  36.8863 7.66461 6.49957
LeftFoot  0.702964 2.56686 -24.0544
LeftToes  1.24767e-006 1.47042e-008 1.32732e-009
128
root  3.69099 37.8085 29.0654 1.51135 58.9204 -5.45563
RightUpLeg  -24.0188 -6.66163 0.648396
RightLeg  37.1406 -6.29324 -5.35181
RightFoot  -15.5001 -0.0637266 1.14692
RightToes  -2.08645e-008 3.77894e-005 6.81332e-007
Spine  3.40064 -3.0053 2.11522
Spine1  4.34371 -2.6569 -1.68133
HEad  -35.6954 -26.1958 11.8567
LeftShoulder1  8.5511 -14.2438 -41.8605
LeftArm  -6.39967 29.8797 -29.3
LeftForeArm  170.393 -67.1938 -156.842
LeftHand  -0.400915 -2.28299 6.27311
RightShoulder  4.05398 6.65666 34.0114
RightArm  6.77974 -16.9209 27.0876
RightForeArm  131.357 78.0698 125.147
RightHand  -0.176591 8.65018 -1.84973
LeftUpLeg  1.44305 -4.72836 16.9133
LeftLeg  30.476 17.0113 10.837
LeftFoot  -5.48103 1.6203 -29.8449
LeftToes  1.24767e-006 1.47042e-008 1.32732e-009
129
root  3.33372 38.6229 28.4804 4.17493 60.9058 -3.74927
RightUpLeg  -23.114 -8.72721 -0.659464
RightLeg  30.7425 -6.14202 -4.16388
RightFoot  -10.807 -0.0591391 1.16828
RightToes  -2.08645e-008 3.77894e-005 6.81332e-007
Spine  2.47583 -3.60167 -1.56633
Spine1  3.80266 -4.05824 2.17711
HEad  -34.8918 -25.0201 11.7093
LeftShoulder1  8.4637 -14.1864 -41.5438
LeftArm  -6.82744 29.3476 -31.6973
LeftForeArm  167.709 -67.725 -155.941
LeftHand  -0.414154 -1.84922 6.82167
RightShoulder  3.99343 6.5655 33.7733
RightArm  6.03835 -18.3512 28.5882
RightForeArm  142.98 76.3783 135.067
RightHand  0.0357356 9.39472 -0.118977
LeftUpLeg  1.272 -6.54154 14.7819
LeftLeg  23.7043 22.3466 10.7001
LeftFoot  -2.7636 2.03592 -26.8636
LeftToes  1.24767e-006 1.47042e-008 1.32732e-009
130
root  2.94621 40.1025 27.8574 9.43311 62.4462 -0.0337524
RightUpLeg  -21.0466 -11.1538 -2.84978
RightLeg  19.534 -4.6891 -2.13022
RightFoot  -0.678496 -0.297599 3.22697
RightToes  -2.08645e-008 3.77894e-005 6.81332e-007
Spine  1.93077 -4.12185 -5.24583
Spine1  1.77786 -4.95377 4.64322
HEad  -32.9919 -24.6959 11.0212
LeftShoulder1  8.00643 -13.8527 -39.9266
LeftArm  -2.79114 29.5358 -30.7691
LeftForeArm  166.097 -67.1253 -156.416
LeftHand  -0.40237 -2.18502 6.37287
RightShoulder  3.9663 6.52001 33.6838
RightArm  6.6681 -21.7189 30.7503
RightForeArm  150.153 74.7064 141.468
RightHand  0.0447782 9.34154 -0.045246
LeftUpLeg  -2.46892 0.468665 14.3405
LeftLeg  19.0411 15.4492 6.25887
LeftFoot  9.06657 4.12437 -22.9928
LeftToes  1.24767e-006 1.47042e-008 1.32732e-009
131
root  2.62223 41.3141 27.0569 12.7616 61.5681 2.26514
RightUpLeg  -19.0261 -9.49208 -6.62259
RightLeg  10.5052 -4.47859 0.31683
RightFoot  7.73823 -1.95021 11.8841
RightToes  -2.08645e-008 3.77894e-005 6.81332e-007
Spine  1.8372 -4.11834 -4.38838
Spine1  -0.49287 -4.36195 2.15318
HEad  -30.3756 -24.4694 10.151
LeftShoulder1  7.56803 -13.592 -38.1527
LeftArm  1.88771 29.8976 -27.6399
LeftForeArm  165.859 -65.4807 -158.065
LeftHand  -0.272391 -2.54153 4.20102
RightShoulder  4.05461 6.68718 33.8987
RightArm  8.76184 -24.4598 31.9828
RightForeArm  150.946 73.16 145.192
RightHand  -0.0845076 8.53701 -1.08821
LeftUpLeg  -4.22651 10.4262 13.8594
LeftLeg  15.0105 7.35777 2.37641
LeftFoot  17.4553 5.32333 -20.9602
LeftToes  1.24767e-006 1.47042e-008 1.32732e-009
132
root  2.34073 41.8944 26.1644 13.9656 59.6707 3.80133
RightUpLeg  -17.9665 -9.66379 -9.41936
RightLeg  9.06572 -1.35039 0.667484
RightFoot  7.5212 -2.98227 18.1086
RightToes  -2.08645e-008 3.77894e-005 6.81332e-007
Spine  1.619 -3.95766 -3.10932
Spine1  -0.991354 -3.75258 -0.390865
HEad  -28.4345 -23.7494 8.534
LeftShoulder1  7.5267 -13.6516 -37.7722
LeftArm  4.85632 29.3513 -23.7325
LeftForeArm  163.196 -63.3566 -159.683
LeftHand  -0.163384 -2.52413 2.60981
RightShoulder  4.12184 6.83698 33.9713
RightArm  11.914 -24.1371 31.5151
RightForeArm  150.785 71.6711 148.046
RightHand  0.0528013 8.15645 0.0690652
LeftUpLeg  -3.35653 9.9275 12.4734
LeftLeg  11.8553 7.80307 1.45381
LeftFoot  15.7909 4.11358 -17.3042
LeftToes  1.24767e-006 1.47042e-008 1.32732e-009
133
root  2.04637 41.9743 25.2041 12.9242 57.5002 3.98163
RightUpLeg  -18.5551 -6.68779 -11.2134
RightLeg  16.5724 -2.09102 -1.05612
RightFoot  4.7042 -1.78011 12.778
RightToes  -2.08645e-008 3.77894e-005 6.81332e-007
Spine  1.36965 -3.59756 -2.21436
Spine1  0.574494 -3.38061 -0.774278
HEad  -27.8395 -22.7384 6.79668
LeftShoulder1  7.46655 -13.5709 -37.6335
LeftArm  6.44163 27.2092 -21.4573
LeftForeArm  162.049 -61.7186 -160.869
LeftHand  -0.190227 -2.39171 3.04244
RightShoulder  3.98475 6.71633 33.1015
RightArm  14.3636 -21.4069 31.4837
RightForeArm  153.159 70.9659 149.603
RightHand  0.0431169 8.33768 -0.0187906
LeftUpLeg  -1.73718 5.20677 10.6507
LeftLeg  10.8927 7.16416 2.38928
LeftFoot  11.7101 3.10134 -15.4969
LeftToes  1.24767e-006 1.47042e-008 1.32732e-009
134
root  1.77313 41.383 24.2468 10.785 54.6809 2.76605
RightUpLeg  -20.5889 -0.457099 -12.6249
RightLeg  27.9978 -4.91127 -3.07288
RightFoot  4.49935 -1.15309 8.4122
RightToes  -2.08645e-008 3.77894e-005 6.81332e-007
Spine  1.03713 -2.96622 -0.184104
Spine1  2.05466 -2.62548 -1.57422
HEad  -27.3334 -21.6997 5.79879
LeftShoulder1  7.02056 -13.0929 -36.2464
LeftArm  6.88962 24.9647 -21.6312
LeftForeArm  164.596 -61.1723 -161.516
LeftHand  -0.193051 -2.24579 3.1306
RightShoulder  3.8171 6.54208 32.1098
RightArm  15.1841 -19.2389 32.2534
RightForeArm  154.912 71.4369 149.071
RightHand  0.140371 8.96795 0.733791
LeftUpLeg  -0.332482 1.20885 9.48055
LeftLeg  12.3601 3.23273 2.18918
LeftFoot  7.20487 2.8666 -17.72
LeftToes  1.24767e-006 1.47042e-008 1.32732e-009
135
root  1.46369 40.0446 23.4123 9.8363 52.8152 2.47437
RightUpLeg  -20.9853 2.52731 -14.0158
RightLeg  34.8651 -4.17506 -3.37346
RightFoot  -0.742836 -1.19425 12.7715
RightToes  -2.08645e-008 3.77894e-005 6.81332e-007
Spine  0.943692 -2.70492 0.091001
Spine1  2.3953 -2.41934 -1.60528
HEad  -26.9718 -20.7414 5.23818
LeftShoulder1  6.83483 -12.8429 -35.7743
LeftArm  5.92449 22.3654 -21.8324
LeftForeArm  164.751 -61.785 -161.079
LeftHand  -0.176982 -2.41323 2.83743
RightShoulder  3.82193 6.54995 32.1287
RightArm  14.8737 -18.1586 32.1542
RightForeArm  152.79 72.4221 146.969
RightHand  0.0367498 9.23642 -0.10687
LeftUpLeg  -0.637917 -2.42794 8.65717
LeftLeg  17.3136 2.19111 1.25839
LeftFoot  -3.06337 1.44385 -19.5356
LeftToes  1.24767e-006 1.47042e-008 1.32732e-009
136
root  1.04788 38.4973 22.6011 9.80933 53.2728 3.64178
RightUpLeg  -18.8273 2.18876 -15.6396
RightLeg  35.1297 -3.83228 -3.146
RightFoot  -12.128 -0.00605982 15.2375
RightToes  -2.08645e-008 3.77894e-005 6.81332e-007
Spine  1.65956 -3.09341 -2.578
Spine1  3.15257 -3.41152 0.819211
HEad  -28.5755 -20.0628 5.48552
LeftShoulder1  7.33507 -13.242 -37.7008
LeftArm  3.89851 17.5452 -20.9555
LeftForeArm  163.748 -63.3298 -159.757
LeftHand  -0.291109 -2.29172 4.60766
RightShoulder  3.90495 6.58291 32.8299
RightArm  12.6851 -17.5693 31.7791
RightForeArm  150.509 73.4836 144.424
RightHand  -0.192703 9.01191 -1.94267
LeftUpLeg  -2.73883 -3.77717 7.49837
LeftLeg  24.4618 2.1304 1.40168
LeftFoot  -16.4199 -0.77004 -19.5659
LeftToes  1.24767e-006 1.47042e-008 1.32732e-009
137
root  0.656693 37.5114 21.7129 8.95178 53.3279 3.79498
RightUpLeg  -18.7166 1.04401 -16.5924
RightLeg  34.9047 -3.70216 -3.02097
RightFoot  -17.9987 0.643193 13.0079
RightToes  -2.08645e-008 3.77894e-005 6.81332e-007
Spine  2.68527 -3.23332 -3.5361
Spine1  4.93267 -3.99299 2.16462
HEad  -32.7141 -19.1689 7.00146
LeftShoulder1  8.01118 -13.81 -40.0628
LeftArm  1.04894 13.6236 -21.1574
LeftForeArm  168.239 -65.2803 -158.509
LeftHand  -0.443485 -1.71842 7.42058
RightShoulder  3.99638 6.59181 33.6995
RightArm  8.16319 -18.5902 32.4007
RightForeArm  152.146 74.5062 142.339
RightHand  -0.173781 9.30866 -1.76786
LeftUpLeg  -4.57517 -6.07207 5.82647
LeftLeg  29.2268 5.0135 3.40208
LeftFoot  -24.1236 -1.89154 -18.0535
LeftToes  1.24767e-006 1.47042e-008 1.32732e-009
